<svg xmlns="http://www.w3.org/2000/svg" xmlns:xlink="http://www.w3.org/1999/xlink" id="Layer_1" x="0px" y="0px" viewBox="0 0 850.39 425.2" style="enable-background:new 0 0 850.39 425.2;" xml:space="preserve"><style type="text/css">	.st0{fill:#141414;}	.st1{fill:#FCFCFC;}	.st2{fill:#020202;}	.st3{fill:#0B0B0B;}	.st4{fill:#080808;}	.st5{fill:#0E0E0E;}	.st6{fill:#272727;}	.st7{fill:#F7F7F7;}</style><g>	<path class="st0" d="M425.43,336.32c-125.43,0-250.87,0-376.3,0c-20.43,0-33.85-13.21-33.87-33.64  c-0.06-60.73-0.05-121.46,0.01-182.19c0.02-20.36,13.5-33.87,33.82-33.88c251.05-0.03,502.11-0.03,753.16-0.01  c20.41,0,33.74,13.47,33.75,33.84c0.01,60.92,0.01,121.84-0.01,182.76c0,19.69-13.42,33.11-33.13,33.11  C677.05,336.33,551.24,336.32,425.43,336.32z M426.16,330.73c124.68,0,249.37,0.01,374.05-0.01c19.91,0,30.15-10.19,30.15-29.95  c0.01-59.41,0.01-118.82,0-178.23c0-20.03-10.32-30.22-30.54-30.22c-248.42,0-496.85,0-745.27,0c-2.65,0-5.3-0.11-7.95,0.04  c-14.49,0.8-25.49,11.51-25.54,26.03c-0.2,62.06-0.17,124.12-0.04,186.18c0.03,12.6,8.41,22.81,20.35,25.42  c3.64,0.8,7.52,0.72,11.29,0.72C177.17,330.74,301.67,330.73,426.16,330.73z"></path>	<path class="st1" d="M426.16,330.73c-124.5,0-248.99,0.01-373.49-0.03c-3.77,0-7.64,0.08-11.29-0.72  c-11.94-2.61-20.32-12.82-20.35-25.42c-0.13-62.06-0.16-124.12,0.04-186.18c0.05-14.51,11.04-25.23,25.54-26.03  c2.64-0.15,5.3-0.04,7.95-0.04c248.42,0,496.85,0,745.27,0c20.22,0,30.53,10.19,30.54,30.22c0.01,59.41,0.01,118.82,0,178.23  c0,19.76-10.25,29.95-30.15,29.95C675.53,330.74,550.85,330.73,426.16,330.73z M95.13,217.9c0.93,23.6,9.89,44.91,26.57,62.99  c6.93,7.52,15.31,9.75,24.66,5.33c10.84-5.12,21.23-5.22,32.16-0.01c8.96,4.27,17.48,2.23,24.38-4.9  c9.06-9.36,15.62-20.32,20.16-32.54c0.97-2.62,0.52-3.86-1.97-5.36c-22.29-13.39-24.3-39.48-4.17-55.49  c3.29-2.61,2.71-4.07,0.52-6.67c-10.12-12.04-27.32-16.63-43.37-10.11c-9.17,3.72-17.2,4.2-26.55,0.32  c-15.38-6.38-31.47-1.26-42.07,11.92C97.59,193.17,95.28,204.69,95.13,217.9z M428.8,231.04c1.05-9.06-5.14-4.8-8.37-5.33  c-4.69-0.78-3.08,3.23-3.09,5.42c-0.1,20.05,0.07,40.11-0.15,60.16c-0.06,5.44,3.55,3.8,6.14,3.76c2.53-0.04,6.43,1.85,6.18-3.68  c-0.3-6.47-0.07-12.96-0.07-19.93c13.09,8.41,27.23,7.17,35.72-2.54c8.44-9.65,8.46-25.97,0.05-35.56  C456.54,223.46,442.39,222.29,428.8,231.04z M363.62,231.01c0.79-8.25-4.99-4.93-8.39-5.36c-4.78-0.61-3.12,3.24-3.13,5.42  c-0.11,19.64,0.14,39.29-0.21,58.92c-0.09,5.1,2.11,5.24,5.98,5.24c3.96,0,6.78,0.14,6.36-5.41c-0.43-5.81-0.67-11.76,0.37-17.83  c13.82,8,27.96,6.26,36.16-4.1c7.53-9.52,7.07-25.61-0.97-34.68C391.09,223.39,376.91,222.31,363.62,231.01z M308.98,209.86  c-3.84-0.23-6.67-0.43-8.52,3.86c-8.45,19.57-17.26,39-26.2,58.35c-1.9,4.12-0.7,4.23,3.07,4.59c5.94,0.57,9.79-0.93,11.07-7.12  c0.23-1.09,1.05-2.05,1.26-3.14c0.92-4.69,3.87-5.6,8.23-5.34c6.21,0.37,12.52,0.61,18.68-0.04c6.79-0.72,10.7,1.57,12.01,8.25  c1.27,6.46,5.33,7.91,11.48,7.43c4.24-0.33,4.59-1.08,2.9-4.75c-8.69-18.85-17.29-37.74-25.61-56.76  C315.48,210.92,313.35,208.54,308.98,209.86z M531.08,277.42c3.89,0.09,8.77-0.35,13.44-2.12c8.52-3.24,13.31-9.71,13.27-17.88  c-0.03-8.08-4.41-13.56-13.71-16.57c-5.74-1.86-11.7-3.07-17.44-4.92c-4.14-1.33-8.82-2.9-8.19-8.55c0.61-5.49,5.06-7.12,9.8-7.8  c6.75-0.97,13.18,0.34,19.3,3.2c1.99,0.93,4.07,2.23,4.66-1.14c0.47-2.71,4.84-5.34,0.49-8.28c-9.29-6.28-29.98-5.98-39.12,0.55  c-5.72,4.09-8.23,9.79-7.7,16.7c0.53,6.94,4.6,11.47,10.83,14c3.48,1.42,7.18,2.31,10.8,3.4c4.51,1.36,9.29,1.92,13.48,4.24  c3.76,2.08,5.69,5.05,3.52,9.37c-1.72,3.42-5.03,4.5-8.45,5c-8.12,1.2-15.74-0.47-23.06-4.14c-1.58-0.79-3.92-4.71-5.48,0.06  c-1.04,3.19-5.63,6.6,0.66,9.65C515.12,275.56,522.33,277.36,531.08,277.42z M735.87,255.05c5.29,0,10.58-0.15,15.87,0.06  c2.87,0.11,3.96-0.69,4.07-3.71c0.48-12.7-7.57-23.21-20.05-25.83c-13.36-2.8-26.02,3.73-30.41,15.69  c-4.12,11.22-0.95,23.42,7.87,30.21c9.25,7.13,25.28,7.84,34.68,1.27c1.71-1.2,5.95-2.11,2.88-5.68c-2.08-2.42-3.2-6.85-8.56-3.15  c-8.34,5.75-20.25,3.19-24.64-4.28c-1.71-2.92-2.12-4.83,2.43-4.64C725.29,255.22,730.58,255.05,735.87,255.05z M630.5,277.19  c15.67-0.05,26.99-10.88,27.12-25.96c0.13-15.17-11.53-26.36-27.38-26.28c-15.74,0.07-26.95,10.85-27.03,25.98  C603.14,266.3,614.5,277.24,630.5,277.19z M570.34,250.62c0,2.84-0.03,5.67,0.01,8.51c0.18,14.38,12.09,22.22,25.39,16.75  c2.27-0.94,4.37-2,2.67-4.91c-1.23-2.12-0.37-6.24-5.65-4.43c-6.61,2.27-10.05-0.69-10.24-7.71c-0.17-6.23,0.13-12.48-0.13-18.71  c-0.15-3.41,0.76-4.98,4.36-4.47c1.48,0.21,3.04-0.11,4.53,0.06c3.52,0.41,4.74-0.65,4.99-4.57c0.37-5.78-2.87-5.57-6.59-5.16  c-5.02,0.54-8.59-0.14-7.25-6.62c1.28-6.17-3.29-4.65-6.64-4.96c-3.81-0.35-6.29,0.24-5.48,4.98c0.79,4.62-0.29,7.54-6.06,6.69  c-3.14-0.46-2.26,2.58-2.06,4.1c0.25,1.87-1.71,5.77,1.9,5.3c7.2-0.92,6.45,3.35,6.27,7.79  C570.26,245.7,570.34,248.16,570.34,250.62z M157.88,164.37c-1.11,4.93,1.91,5.4,6.2,4.75c15.25-2.31,28.78-19.03,27.88-34.47  c-0.16-2.72-0.79-4.09-4.03-3.71C172.59,132.73,158.4,148.15,157.88,164.37z M680.13,232.31c1.69-9.11-4.04-6.24-7.57-6.73  c-4.92-0.67-3.74,2.9-3.75,5.49c-0.04,13.78,0.2,27.56-0.13,41.33c-0.12,5.2,3.04,4.19,5.86,4.07c2.81-0.11,6.71,1.61,6.41-4.11  c-0.36-6.96-0.21-13.97-0.05-20.95c0.19-8.47,4.05-14.61,11.12-14.63c7.29-0.02,6.47-3.84,6.46-8.44c-0.01-2.83-1.02-3.64-3.7-3.29  C689.61,225.73,684.94,227.44,680.13,232.31z M283.89,155.35c0,5.47,0.08,10.93-0.04,16.4c-0.05,2.41,0.75,3.33,3.24,3.24  c4.71-0.17,9.43,0.13,14.13-0.11c11.02-0.57,18.84-8.58,19.02-19.26c0.18-10.47-7.03-18.54-17.94-19.59  c-5.05-0.49-10.17-0.15-15.25-0.35c-2.49-0.1-3.27,0.85-3.21,3.27C283.98,144.42,283.88,149.88,283.89,155.35z M391.87,170.81  c-3.12-8.13-5.73-14.98-8.39-21.82c-0.52-1.34-0.58-3.26-2.54-3.31c-1.98-0.05-2.13,1.82-2.65,3.18  c-2.68,6.89-5.34,13.79-8.54,22.06c-3.19-8.47-5.79-15.5-8.5-22.5c-0.49-1.26-0.76-3.53-2.84-2.57c-1.56,0.72-0.31,2.32,0.12,3.47  c2.58,6.89,5.12,13.8,7.85,20.63c0.71,1.79,0.53,4.71,3.12,4.86c3.13,0.18,2.77-3.09,3.57-4.96c2.6-6.05,4.96-12.21,7.85-19.43  c2.6,6.73,4.41,12.11,6.76,17.24c1.16,2.53,0.7,7.16,4.36,7.02c3.42-0.13,3.11-4.65,4.19-7.26c2.91-7.02,5.39-14.23,8.04-21.36  c-0.77-0.33-1.54-0.65-2.31-0.98C398.78,153.2,395.59,161.31,391.87,170.81z M551.9,170.58c1.35,1.39-0.17,4.37,2.39,4.18  c2.54-0.19,1.39-2.7,1.4-4.16c0.1-11.16,0.09-22.32,0.03-33.48c-0.01-1.32,0.83-3.5-1.45-3.61c-2.24-0.1-1.75,2.01-1.77,3.42  c-0.05,4.25-0.02,8.5-0.02,13.16c-9.54-6.35-17.5-6.05-22.81,0.39c-4.71,5.71-4.41,14.97,0.65,20.36  C535.78,176.65,544.16,176.61,551.9,170.58z M693.09,149.57c0-4.73,0.05-8.8-0.03-12.88c-0.02-1.19,0.6-3.02-1.32-3.2  c-1.91-0.18-1.77,1.53-1.77,2.83c-0.01,11.91-0.02,23.83,0,35.74c0,1.27-0.16,2.93,1.84,2.74c1.59-0.15,1.24-1.64,1.26-2.68  c0.07-4.73-0.22-9.48,0.17-14.17c0.51-6.28,4.94-9.88,11.13-9.6c5.8,0.26,8.63,3.47,8.82,10.23c0.12,4.16-0.05,8.32,0.07,12.48  c0.04,1.32-0.9,3.51,1.29,3.7c2.33,0.2,1.69-2.04,1.71-3.38c0.07-4.73,0.2-9.46-0.04-14.18c-0.5-9.69-8.68-14.61-17.69-10.73  C696.88,147.18,695.39,148.25,693.09,149.57z M739.76,161.17c2.07,0,4.15,0,6.22,0c6.97-0.01,8.08-1.86,4.91-8.22  c-2.7-5.4-8.51-8.37-14.59-7.46c-6.01,0.9-10.55,5.37-11.65,11.5c-1.27,7.05,1.49,13.38,7.16,16.44  c5.26,2.84,13.46,2.17,17.08-1.34c0.85-0.82,1.87-1.67,0.73-2.75c-1.13-1.08-1.93,0.27-2.86,0.78c-7.07,3.83-14.56,2.31-17.74-3.61  c-1.65-3.08-2.52-5.8,2.84-5.36C734.46,161.36,737.12,161.18,739.76,161.17z M518.28,163.53c0-1.7,0-3.4,0-5.1  c-0.02-11.01-6.43-15.6-17.1-12.11c-2.17,0.71-6.12,1.54-5.12,3.9c1.25,2.94,3.67-0.65,5.54-1.22c6.84-2.09,12.28-0.08,13.32,5.25  c0.53,2.7,0.2,4.37-3.22,4.21c-3.19-0.16-6.42,0.01-9.6,0.33c-4.5,0.45-7.49,2.98-7.67,7.59c-0.2,4.89,2.82,7.65,7.42,8.53  c3.58,0.68,7.14,0.47,10.41-1.49c0.87-0.52,1.53-1.58,2.91-0.81c2.98,1.68,3.04,1.62,3.11-1.72  C518.32,168.44,518.28,165.98,518.28,163.53z M488.8,160.85c0.24-8.86-5.78-15.34-14.4-15.52c-8.29-0.17-14.68,5.96-15.03,14.43  c-0.36,8.61,5.95,15.33,14.5,15.44C482.38,175.31,488.56,169.37,488.8,160.85z M325.77,159.88c-0.2,8.68,5.55,14.98,13.94,15.3  c8.77,0.33,15.16-5.68,15.39-14.46c0.22-8.77-5.97-15.3-14.54-15.37C332.11,145.28,325.96,151.33,325.77,159.88z M414.41,149.8  c-1.59-1.24,0.26-4.26-2.53-4.02c-2.06,0.18-1.32,2.4-1.33,3.77c-0.07,7.18-0.06,14.37-0.01,21.55c0.01,1.39-0.58,3.64,1.49,3.66  c2.6,0.02,1.58-2.47,1.63-3.92c0.16-4.15-0.14-8.33,0.16-12.47c0.48-6.61,4.92-10.4,11.3-10.04c5.71,0.32,8.54,3.61,8.69,10.37  c0.1,4.53-0.01,9.07,0.01,13.61c0.01,1.08-0.18,2.43,1.43,2.56c1.63,0.13,1.74-1.16,1.72-2.3c-0.1-6.04,0.06-12.11-0.48-18.11  c-0.46-5.13-3.97-7.99-8.94-8.89C422.57,144.68,418.2,146.07,414.41,149.8z M592.91,175.21c8.44,0.04,14.63-6.04,14.82-14.54  c0.19-8.72-6.07-15.26-14.64-15.31c-8.58-0.05-14.93,6.42-14.83,15.13C578.35,168.98,584.51,175.17,592.91,175.21z M619.72,149.94  c-1.2-1.56,0.2-4.46-2.48-4.15c-1.94,0.22-1.25,2.44-1.26,3.84c-0.06,6.99-0.07,13.97,0.02,20.96c0.02,1.52-0.87,4.06,1.51,4.17  c2.56,0.12,1.56-2.47,1.61-3.92c0.16-4.34-0.15-8.7,0.2-13.02c0.48-5.95,4.76-9.59,10.62-9.54c5.84,0.05,9,3.27,9.27,9.81  c0.18,4.52,0,9.06,0.07,13.59c0.02,1.18-0.6,2.99,1.34,3.15c2.11,0.18,1.6-1.69,1.61-2.87c0.04-5.29,0.22-10.59-0.09-15.85  c-0.4-6.8-4.68-10.61-11.45-10.77C626.53,145.24,622.97,146.67,619.72,149.94z M668.29,158.99c0.03,0,0.06,0,0.09,0  c0,3.03-0.26,6.08,0.06,9.07c0.63,5.96,6.39,9.05,11.76,6.48c0.96-0.46,2.33-0.87,1.66-2.4c-0.55-1.25-1.53-0.45-2.41-0.32  c-6.28,0.96-7.82-0.31-7.96-6.56c-0.07-3.22,0.18-6.45-0.06-9.65c-0.36-4.84-0.11-8.79,6.54-7.36c0.99,0.21,2.57,0.18,2.49-1.44  c-0.08-1.59-1.6-1.3-2.65-1.26c-3.65,0.14-7.44,0.63-6.49-5.12c0.14-0.82-0.77-1.27-1.58-1.12c-1.1,0.2-1.41,1.02-1.45,2.08  c-0.07,1.92,0.8,4.5-2.76,4.15c-0.92-0.09-2.07-0.12-2.18,1.17c-0.14,1.7,1.24,1.63,2.33,1.58c2.49-0.12,2.68,1.42,2.64,3.31  C668.24,154.07,668.29,156.53,668.29,158.99z M451.17,153.91c0-5.84,0.02-11.69-0.01-17.53c-0.01-1.25,0.29-2.96-1.66-2.91  c-1.4,0.04-1.53,1.39-1.53,2.58c0.01,12.07,0,24.13,0.02,36.2c0,1.12-0.02,2.49,1.48,2.59c2.12,0.14,1.67-1.64,1.68-2.82  C451.19,165.98,451.16,159.95,451.17,153.91z"></path>	<path class="st2" d="M95.13,217.9c0.15-13.21,2.46-24.73,10.32-34.5c10.6-13.18,26.69-18.3,42.07-11.92  c9.35,3.88,17.38,3.4,26.55-0.32c16.05-6.52,33.25-1.93,43.37,10.11c2.19,2.6,2.77,4.06-0.52,6.67c-20.14,16-18.13,42.1,4.17,55.49  c2.5,1.5,2.95,2.74,1.97,5.36c-4.54,12.21-11.11,23.18-20.16,32.54c-6.9,7.13-15.42,9.17-24.38,4.9  c-10.93-5.2-21.32-5.1-32.16,0.01c-9.35,4.41-17.73,2.18-24.66-5.33C105.03,262.81,96.07,241.5,95.13,217.9z"></path>	<path class="st3" d="M428.8,231.04c13.59-8.75,27.74-7.58,36.41,2.3c8.41,9.59,8.39,25.91-0.05,35.56  c-8.49,9.71-22.62,10.94-35.72,2.54c0,6.97-0.23,13.46,0.07,19.93c0.25,5.53-3.65,3.63-6.18,3.68c-2.59,0.04-6.2,1.69-6.14-3.76  c0.22-20.05,0.04-40.1,0.15-60.16c0.01-2.19-1.59-6.19,3.09-5.42C423.67,226.24,429.85,221.98,428.8,231.04z M429.25,250.67  c-0.17,9.28,5.88,15.98,14.57,16.15c8.86,0.17,15.18-6.17,15.32-15.39c0.15-9.28-5.89-15.99-14.57-16.2  C435.85,235.01,429.42,241.5,429.25,250.67z"></path>	<path class="st4" d="M363.62,231.01c13.29-8.7,27.47-7.62,36.17,2.19c8.05,9.08,8.5,25.17,0.97,34.68  c-8.19,10.36-22.34,12.1-36.16,4.1c-1.04,6.07-0.8,12.02-0.37,17.83c0.42,5.55-2.4,5.41-6.36,5.41c-3.87,0-6.07-0.14-5.98-5.24  c0.34-19.64,0.1-39.28,0.21-58.92c0.01-2.18-1.65-6.03,3.13-5.42C358.63,226.08,364.41,222.76,363.62,231.01z M379.11,266.83  c8.61-0.09,14.91-6.82,14.86-15.86c-0.05-9.1-6.35-15.72-14.99-15.75c-8.82-0.03-15.33,6.91-15.15,16.17  C364,260.44,370.42,266.92,379.11,266.83z"></path>	<path class="st4" d="M308.98,209.86c4.37-1.32,6.5,1.05,8.37,5.32c8.32,19.02,16.92,37.91,25.61,56.76  c1.69,3.67,1.34,4.41-2.9,4.75c-6.15,0.48-10.22-0.97-11.48-7.43c-1.31-6.68-5.22-8.97-12.01-8.25  c-6.16,0.66-12.47,0.41-18.68,0.04c-4.36-0.26-7.32,0.66-8.23,5.34c-0.21,1.09-1.04,2.05-1.26,3.14  c-1.28,6.19-5.14,7.69-11.07,7.12c-3.77-0.36-4.97-0.48-3.07-4.59c8.94-19.36,17.75-38.78,26.2-58.35  C302.31,209.44,305.14,209.63,308.98,209.86z M320.82,250.97c-4.13-9.52-8-18.43-12.35-28.45c-4.33,10.17-8.13,19.08-12.12,28.45  C304.64,250.97,312.28,250.97,320.82,250.97z"></path>	<path class="st3" d="M531.08,277.42c-8.75-0.06-15.96-1.86-22.91-5.24c-6.28-3.06-1.7-6.46-0.66-9.65c1.56-4.78,3.9-0.85,5.48-0.06  c7.32,3.67,14.94,5.34,23.06,4.14c3.41-0.5,6.73-1.58,8.45-5c2.17-4.32,0.24-7.29-3.52-9.37c-4.19-2.32-8.97-2.88-13.48-4.24  c-3.61-1.09-7.32-1.98-10.8-3.4c-6.23-2.54-10.31-7.06-10.83-14c-0.53-6.9,1.98-12.61,7.7-16.7c9.14-6.54,29.83-6.83,39.12-0.55  c4.35,2.94-0.02,5.57-0.49,8.28c-0.58,3.36-2.67,2.07-4.66,1.14c-6.12-2.86-12.55-4.17-19.3-3.2c-4.74,0.68-9.19,2.32-9.8,7.8  c-0.63,5.65,4.05,7.22,8.19,8.55c5.75,1.85,11.7,3.06,17.44,4.92c9.3,3.01,13.68,8.5,13.71,16.57c0.03,8.16-4.75,14.64-13.27,17.88  C539.85,277.08,534.97,277.51,531.08,277.42z"></path>	<path class="st5" d="M735.87,255.05c-5.29,0-10.59,0.17-15.87-0.05c-4.54-0.19-4.14,1.73-2.43,4.64  c4.39,7.47,16.3,10.03,24.64,4.28c5.36-3.7,6.48,0.73,8.56,3.15c3.06,3.57-1.17,4.48-2.88,5.68c-9.4,6.57-25.43,5.86-34.68-1.27  c-8.81-6.79-11.99-18.99-7.87-30.21c4.39-11.96,17.05-18.49,30.41-15.69c12.48,2.61,20.53,13.12,20.05,25.83  c-0.11,3.02-1.21,3.82-4.07,3.71C746.46,254.91,741.16,255.05,735.87,255.05z M729.85,246.86c3.76,0,7.53-0.06,11.29,0.02  c2.76,0.06,3.14-0.95,2.17-3.42c-2.01-5.13-6.69-8.45-12.72-8.66c-6.26-0.21-11.32,2.84-13.76,8c-1.56,3.3-0.6,4.31,2.86,4.1  C723.07,246.71,726.46,246.87,729.85,246.86z"></path>	<path class="st3" d="M630.5,277.19c-16,0.05-27.36-10.89-27.29-26.26c0.07-15.13,11.29-25.9,27.03-25.98  c15.85-0.07,27.51,11.12,27.38,26.28C657.49,266.31,646.17,277.14,630.5,277.19z M645.34,251.06c-0.01-9.17-6.29-15.82-14.98-15.84  c-8.68-0.02-14.95,6.6-14.97,15.81c-0.02,9.25,6.16,15.78,14.94,15.79C639.1,266.82,645.35,260.26,645.34,251.06z"></path>	<path class="st3" d="M570.34,250.62c0-2.46-0.08-4.92,0.02-7.37c0.18-4.44,0.93-8.72-6.27-7.79c-3.61,0.46-1.65-3.43-1.9-5.3  c-0.2-1.52-1.08-4.56,2.06-4.1c5.77,0.85,6.85-2.07,6.06-6.69c-0.81-4.74,1.67-5.33,5.48-4.98c3.34,0.31,7.92-1.21,6.64,4.96  c-1.34,6.48,2.23,7.16,7.25,6.62c3.72-0.4,6.96-0.61,6.59,5.16c-0.25,3.92-1.47,4.98-4.99,4.57c-1.49-0.17-3.05,0.14-4.53-0.06  c-3.6-0.5-4.51,1.06-4.36,4.47c0.27,6.23-0.04,12.48,0.13,18.71c0.19,7.02,3.63,9.98,10.24,7.71c5.28-1.81,4.42,2.3,5.65,4.43  c1.69,2.91-0.4,3.98-2.67,4.91c-13.3,5.47-25.21-2.37-25.39-16.75C570.31,256.29,570.34,253.45,570.34,250.62z"></path>	<path class="st4" d="M157.88,164.37c0.52-16.23,14.72-31.64,30.06-33.43c3.23-0.38,3.87,0.99,4.03,3.71  c0.9,15.44-12.63,32.16-27.88,34.47C159.79,169.77,156.77,169.3,157.88,164.37z"></path>	<path class="st4" d="M680.13,232.31c4.81-4.87,9.48-6.58,14.65-7.24c2.68-0.35,3.69,0.46,3.7,3.29c0.01,4.59,0.83,8.41-6.46,8.44  c-7.07,0.02-10.93,6.16-11.12,14.63c-0.16,6.98-0.31,13.98,0.05,20.95c0.3,5.72-3.6,4-6.41,4.11c-2.82,0.11-5.98,1.13-5.86-4.07  c0.33-13.77,0.08-27.56,0.13-41.33c0.01-2.59-1.17-6.16,3.75-5.49C676.09,226.06,681.82,223.2,680.13,232.31z"></path>	<path class="st0" d="M283.89,155.35c0-5.47,0.09-10.93-0.04-16.4c-0.06-2.42,0.72-3.38,3.21-3.27c5.08,0.21,10.2-0.13,15.25,0.35  c10.91,1.05,18.11,9.12,17.94,19.59c-0.18,10.67-7.99,18.69-19.02,19.26c-4.7,0.24-9.43-0.07-14.13,0.11  c-2.5,0.09-3.29-0.82-3.24-3.24C283.97,166.28,283.89,160.81,283.89,155.35z M286.87,155.1c0,1.13,0,2.26,0,3.39  c0,15.37,0.98,16.16,16.37,13.23c11.12-2.11,16.86-12.74,12.57-23.24c-3.34-8.17-14.5-13.03-26.49-9.58  c-5.64,1.62-1.18,8.5-2.4,12.81C286.62,152.76,286.87,153.97,286.87,155.1z"></path>	<path class="st6" d="M391.87,170.81c3.73-9.5,6.91-17.61,10.1-25.72c0.77,0.33,1.54,0.65,2.31,0.98  c-2.65,7.13-5.13,14.33-8.04,21.36c-1.08,2.61-0.76,7.13-4.19,7.26c-3.66,0.14-3.2-4.49-4.36-7.02  c-2.35-5.13-4.16-10.51-6.76-17.24c-2.9,7.22-5.26,13.37-7.85,19.43c-0.8,1.88-0.45,5.15-3.57,4.96c-2.59-0.15-2.4-3.08-3.12-4.86  c-2.73-6.83-5.26-13.74-7.85-20.63c-0.43-1.15-1.69-2.75-0.12-3.47c2.08-0.96,2.35,1.31,2.84,2.57c2.71,6.99,5.31,14.03,8.5,22.5  c3.2-8.27,5.86-15.17,8.54-22.06c0.53-1.36,0.68-3.23,2.65-3.18c1.96,0.05,2.02,1.97,2.54,3.31  C386.13,155.82,388.75,162.68,391.87,170.81z"></path>	<path class="st6" d="M551.9,170.58c-7.74,6.03-16.12,6.07-21.58,0.26c-5.07-5.39-5.36-14.65-0.65-20.36  c5.31-6.44,13.27-6.74,22.81-0.39c0-4.66-0.03-8.91,0.02-13.16c0.02-1.41-0.48-3.53,1.77-3.42c2.28,0.1,1.44,2.29,1.45,3.61  c0.06,11.16,0.07,22.32-0.03,33.48c-0.01,1.46,1.13,3.96-1.4,4.16C551.73,174.95,553.25,171.97,551.9,170.58z M552.48,160.44  c0.05-7.03-4.66-12.1-11.29-12.14c-6.61-0.04-11.54,5.02-11.6,11.91c-0.05,6.84,4.86,12.12,11.36,12.2  C547.5,172.5,552.43,167.37,552.48,160.44z"></path>	<path class="st6" d="M693.09,149.57c2.29-1.32,3.79-2.39,5.43-3.09c9.02-3.88,17.19,1.04,17.69,10.73  c0.24,4.72,0.12,9.45,0.04,14.18c-0.02,1.34,0.62,3.58-1.71,3.38c-2.19-0.19-1.25-2.38-1.29-3.7c-0.12-4.16,0.04-8.32-0.07-12.48  c-0.19-6.76-3.03-9.97-8.82-10.23c-6.19-0.28-10.62,3.32-11.13,9.6c-0.38,4.7-0.1,9.45-0.17,14.17c-0.02,1.04,0.34,2.52-1.26,2.68  c-2.01,0.19-1.84-1.46-1.84-2.74c-0.02-11.91-0.01-23.83,0-35.74c0-1.3-0.13-3.01,1.77-2.83c1.92,0.18,1.3,2.01,1.32,3.2  C693.14,140.77,693.09,144.84,693.09,149.57z"></path>	<path class="st6" d="M739.76,161.18c-2.64,0-5.29,0.18-7.91-0.04c-5.35-0.45-4.49,2.27-2.84,5.36c3.18,5.92,10.67,7.44,17.74,3.61  c0.94-0.51,1.73-1.86,2.86-0.78c1.13,1.09,0.12,1.93-0.73,2.75c-3.62,3.51-11.82,4.17-17.08,1.34c-5.67-3.06-8.43-9.39-7.16-16.44  c1.1-6.12,5.64-10.6,11.65-11.5c6.07-0.91,11.89,2.07,14.59,7.46c3.18,6.36,2.07,8.21-4.91,8.22  C743.9,161.18,741.83,161.17,739.76,161.18z M738.26,158.75c1.12,0,2.31,0.23,3.36-0.05c2.44-0.64,6.51,1.9,7.11-1.63  c0.62-3.65-2.51-6.54-6.02-7.95c-4.6-1.85-8.85-1.03-12.31,2.66c-1.55,1.66-3.12,3.8-2.24,5.99c0.83,2.07,3.32,0.74,5.06,0.93  C734.87,158.89,736.57,158.75,738.26,158.75z"></path>	<path class="st6" d="M518.28,163.53c0,2.45,0.04,4.91-0.01,7.36c-0.07,3.34-0.13,3.41-3.11,1.72c-1.38-0.78-2.04,0.28-2.91,0.81  c-3.27,1.97-6.83,2.17-10.41,1.49c-4.6-0.88-7.62-3.64-7.42-8.53c0.19-4.61,3.17-7.14,7.67-7.59c3.18-0.32,6.41-0.48,9.6-0.33  c3.42,0.17,3.74-1.5,3.22-4.21c-1.04-5.33-6.48-7.34-13.32-5.25c-1.87,0.57-4.29,4.16-5.54,1.22c-1-2.35,2.95-3.18,5.12-3.9  c10.66-3.49,17.07,1.1,17.1,12.11C518.28,160.13,518.28,161.83,518.28,163.53z M508.53,160.94c-2.01,0.11-3.71,0.12-5.39,0.31  c-3.15,0.35-5.37,1.82-5.47,5.28c-0.1,3.42,2.08,5.1,5.08,5.78c2.21,0.5,4.49,0.47,6.66-0.41c3.89-1.56,6.39-4.33,5.7-8.64  C514.37,158.67,510.38,162.25,508.53,160.94z"></path>	<path class="st6" d="M488.8,160.85c-0.23,8.53-6.41,14.47-14.93,14.35c-8.55-0.11-14.86-6.83-14.5-15.44  c0.35-8.47,6.74-14.59,15.03-14.43C483.02,145.5,489.04,151.99,488.8,160.85z M485.57,159.99c-0.12-6.92-5.1-11.85-11.79-11.65  c-6.61,0.19-11.37,5.43-11.18,12.32c0.19,6.79,5.38,11.96,11.84,11.76C480.95,172.23,485.7,166.92,485.57,159.99z"></path>	<path class="st6" d="M325.77,159.88c0.2-8.55,6.35-14.6,14.78-14.54c8.58,0.07,14.77,6.61,14.54,15.37  c-0.22,8.79-6.61,14.79-15.39,14.46C331.31,174.87,325.57,168.56,325.77,159.88z M328.92,159.84c-0.28,6.81,4.49,12.26,11.01,12.57  c6.43,0.3,11.73-4.82,12.02-11.61c0.29-6.79-4.55-12.25-11.07-12.49C334.2,148.05,329.2,152.87,328.92,159.84z"></path>	<path class="st6" d="M414.41,149.8c3.79-3.74,8.16-5.13,13.13-4.23c4.96,0.9,8.48,3.76,8.94,8.89c0.54,6,0.38,12.07,0.48,18.11  c0.02,1.14-0.1,2.43-1.72,2.3c-1.61-0.13-1.42-1.48-1.43-2.56c-0.02-4.54,0.09-9.08-0.01-13.61c-0.15-6.77-2.97-10.06-8.69-10.37  c-6.38-0.35-10.81,3.44-11.3,10.04c-0.3,4.14-0.01,8.32-0.16,12.47c-0.05,1.45,0.97,3.94-1.63,3.92c-2.06-0.02-1.48-2.27-1.49-3.66  c-0.05-7.18-0.06-14.37,0.01-21.55c0.01-1.37-0.72-3.59,1.33-3.77C414.67,145.55,412.83,148.56,414.41,149.8z"></path>	<path class="st6" d="M592.91,175.21c-8.4-0.04-14.56-6.23-14.66-14.72c-0.1-8.71,6.25-15.18,14.83-15.13  c8.58,0.05,14.83,6.59,14.64,15.31C607.54,169.17,601.35,175.25,592.91,175.21z M581.59,160.23c-0.03,6.96,4.77,12.12,11.32,12.18  c6.52,0.06,11.44-5.09,11.49-12.01c0.05-6.99-4.69-12.07-11.33-12.12C586.46,148.23,581.62,153.27,581.59,160.23z"></path>	<path class="st6" d="M619.72,149.94c3.24-3.27,6.81-4.7,10.98-4.6c6.77,0.16,11.05,3.97,11.45,10.77  c0.31,5.27,0.13,10.57,0.09,15.85c-0.01,1.18,0.5,3.05-1.61,2.87c-1.94-0.17-1.32-1.97-1.34-3.15c-0.07-4.53,0.11-9.07-0.07-13.59  c-0.27-6.54-3.43-9.76-9.27-9.81c-5.86-0.05-10.14,3.58-10.62,9.54c-0.35,4.32-0.04,8.68-0.2,13.02c-0.05,1.45,0.95,4.03-1.61,3.92  c-2.38-0.11-1.49-2.65-1.51-4.17c-0.09-6.98-0.07-13.97-0.02-20.96c0.01-1.4-0.68-3.62,1.26-3.84  C619.92,145.49,618.52,148.39,619.72,149.94z"></path>	<path class="st6" d="M668.29,158.99c0-2.46-0.04-4.92,0.01-7.38c0.05-1.89-0.15-3.43-2.64-3.31c-1.09,0.05-2.47,0.12-2.33-1.58  c0.11-1.29,1.26-1.26,2.18-1.17c3.56,0.35,2.7-2.23,2.76-4.15c0.04-1.06,0.35-1.89,1.45-2.08c0.81-0.15,1.72,0.3,1.58,1.12  c-0.95,5.74,2.84,5.26,6.49,5.12c1.04-0.04,2.56-0.33,2.65,1.26c0.08,1.62-1.49,1.65-2.49,1.44c-6.64-1.43-6.9,2.52-6.54,7.36  c0.24,3.2-0.01,6.43,0.06,9.65c0.14,6.26,1.68,7.52,7.96,6.56c0.88-0.13,1.86-0.93,2.41,0.32c0.67,1.53-0.7,1.94-1.66,2.4  c-5.37,2.57-11.13-0.53-11.76-6.48c-0.32-2.99-0.06-6.05-0.06-9.07C668.34,158.99,668.32,158.99,668.29,158.99z"></path>	<path class="st6" d="M451.16,153.91c0,6.03,0.03,12.07-0.03,18.1c-0.01,1.19,0.44,2.97-1.68,2.82c-1.49-0.1-1.47-1.47-1.48-2.59  c-0.02-12.07-0.01-24.13-0.02-36.2c0-1.19,0.12-2.54,1.53-2.58c1.95-0.05,1.65,1.66,1.66,2.91  C451.18,142.22,451.17,148.07,451.16,153.91z"></path>	<path class="st7" d="M429.25,250.67c0.17-9.17,6.6-15.66,15.33-15.45c8.68,0.21,14.72,6.92,14.57,16.2  c-0.15,9.22-6.46,15.57-15.32,15.39C435.13,266.65,429.09,259.95,429.25,250.67z"></path>	<path class="st7" d="M379.11,266.83c-8.7,0.09-15.11-6.38-15.28-15.43c-0.17-9.26,6.33-16.2,15.15-16.17  c8.64,0.03,14.94,6.64,14.99,15.75C394.03,260,387.72,266.73,379.11,266.83z"></path>	<path class="st7" d="M320.82,250.97c-8.53,0-16.17,0-24.47,0c3.99-9.37,7.79-18.28,12.12-28.45  C312.82,232.54,316.68,241.45,320.82,250.97z"></path>	<path class="st7" d="M729.85,246.87c-3.39,0-6.78-0.15-10.16,0.05c-3.46,0.21-4.42-0.8-2.86-4.1c2.44-5.16,7.5-8.21,13.76-8  c6.03,0.2,10.71,3.52,12.72,8.66c0.97,2.47,0.59,3.48-2.17,3.42C737.38,246.8,733.62,246.86,729.85,246.87z"></path>	<path class="st7" d="M645.34,251.06c0.01,9.19-6.25,15.76-15,15.75c-8.78-0.01-14.96-6.53-14.94-15.79  c0.02-9.2,6.29-15.83,14.97-15.81C639.05,235.24,645.34,241.89,645.34,251.06z"></path>	<path class="st7" d="M286.87,155.1c0-1.13-0.25-2.33,0.04-3.38c1.22-4.31-3.24-11.18,2.4-12.81c11.99-3.45,23.14,1.4,26.49,9.58  c4.3,10.5-1.45,21.13-12.57,23.24c-15.39,2.93-16.37,2.14-16.37-13.23C286.87,157.36,286.87,156.23,286.87,155.1z"></path>	<path class="st7" d="M552.48,160.44c-0.05,6.93-4.98,12.06-11.52,11.98c-6.51-0.08-11.42-5.36-11.36-12.2  c0.06-6.89,4.98-11.95,11.6-11.91C547.82,148.34,552.53,153.41,552.48,160.44z"></path>	<path class="st7" d="M738.26,158.75c-1.69,0-3.39,0.14-5.05-0.04c-1.74-0.19-4.23,1.13-5.06-0.93c-0.88-2.19,0.69-4.33,2.24-5.99  c3.46-3.69,7.71-4.51,12.31-2.66c3.52,1.41,6.64,4.3,6.02,7.95c-0.6,3.53-4.67,1-7.11,1.63  C740.56,158.98,739.38,158.75,738.26,158.75z"></path>	<path class="st7" d="M508.53,160.94c1.85,1.31,5.84-2.27,6.58,2.32c0.7,4.31-1.81,7.07-5.7,8.64c-2.17,0.87-4.44,0.91-6.66,0.41  c-3.01-0.69-5.18-2.36-5.08-5.78c0.1-3.46,2.33-4.93,5.47-5.28C504.82,161.06,506.52,161.05,508.53,160.94z"></path>	<path class="st7" d="M485.57,159.99c0.12,6.93-4.63,12.24-11.12,12.43c-6.46,0.19-11.65-4.97-11.84-11.76  c-0.19-6.89,4.56-12.13,11.18-12.32C480.47,148.14,485.45,153.07,485.57,159.99z"></path>	<path class="st7" d="M328.92,159.84c0.29-6.97,5.28-11.78,11.96-11.53c6.52,0.24,11.35,5.7,11.07,12.49  c-0.29,6.8-5.59,11.92-12.02,11.61C333.41,172.1,328.64,166.65,328.92,159.84z"></path>	<path class="st7" d="M581.59,160.23c0.03-6.96,4.87-12,11.49-11.95c6.63,0.05,11.38,5.12,11.33,12.12  c-0.05,6.92-4.97,12.07-11.49,12.01C586.36,172.35,581.57,167.19,581.59,160.23z"></path></g></svg>