<svg xmlns="http://www.w3.org/2000/svg" xmlns:xlink="http://www.w3.org/1999/xlink" id="Layer_1" x="0px" y="0px" viewBox="0 0 850.39 425.2" style="enable-background:new 0 0 850.39 425.2;" xml:space="preserve"><style type="text/css">	.st0{fill:#141414;}	.st1{fill:#FCFCFC;}	.st2{fill:#080808;}	.st3{fill:#12EA7D;}	.st4{fill:#0B0B0B;}	.st5{fill:#F03D4C;}	.st6{fill:#CBFCF6;}	.st7{fill:#FCEDDE;}	.st8{fill:#0E0E0E;}	.st9{fill:#020202;}	.st10{fill:#F7F7F7;}	.st11{fill:#0AD2F8;}	.st12{fill:#FBD115;}</style><g>	<path class="st0" d="M425.51,84.25c128.51,0,257.01-0.01,385.52,0.01c19.1,0,32.36,10.09,35.47,27.03  c0.49,2.65,0.48,5.41,0.48,8.12C847,181.62,847,243.83,847,306.05c0,21.26-13.67,34.96-35.07,34.96  c-102.65,0.02-205.3,0.01-307.95,0.01c-154.17,0-308.34,0-462.51,0c-25.16,0-37.87-12.81-37.87-38.15c0-60.27,0-120.54,0-180.8  c0-24.99,12.73-37.81,37.55-37.81C169.27,84.25,297.39,84.25,425.51,84.25z M425.24,90.14c-128.13,0-256.25-0.01-384.38,0.01  c-21.1,0-31.37,10.4-31.37,31.59c0.01,60.47,0,120.93,0,181.4c0,21.8,10.24,31.99,32.22,31.99c256.45,0.01,512.9,0.01,769.34,0.01  c19.13,0,30.14-10.89,30.16-29.93c0.04-36.55,0.01-73.1,0.01-109.66c0-25.86,0.09-51.72-0.05-77.58  c-0.08-13.75-8.54-24.55-21.12-27.12c-3.57-0.73-7.35-0.68-11.03-0.68C681.1,90.13,553.17,90.14,425.24,90.14z"></path>	<path class="st1" d="M425.24,90.14c127.93,0,255.86-0.01,383.8,0.03c3.68,0,7.45-0.05,11.03,0.68  c12.58,2.57,21.04,13.37,21.12,27.12c0.14,25.86,0.05,51.72,0.05,77.58c0,36.55,0.03,73.1-0.01,109.66  c-0.02,19.04-11.03,29.93-30.16,29.93c-256.45,0-512.9,0-769.34-0.01c-21.98,0-32.22-10.18-32.22-31.99c0-60.47,0-120.93,0-181.4  c0-21.19,10.27-31.59,31.37-31.59C168.99,90.13,297.11,90.14,425.24,90.14z M63.03,298.05c0,0-0.06,0.06-0.06,0.06  c-0.36,0.38-0.72,0.75-1.09,1.13c0,0-0.06,0.06-0.06,0.06c-0.36,0.37-0.72,0.74-1.07,1.11c-0.01,0.4-0.02,0.81-0.03,1.21  c-0.33,0.12-0.67,0.16-1.01,0.12c-0.66,0.22-1.31,0.44-1.97,0.67c0.23,0.43,0.36,1.1,0.7,1.24c1.04,0.42,1.71-0.16,2.06-1.16  c0-0.32,0.05-0.64,0.15-0.94c0.76-0.07,1.53-0.13,2.29-0.2c2.22,2.23,2.12,0.29,2.24-1.24c0.8-0.41,1.59-0.83,2.39-1.24  c0.36,0.76,1,1.43,1.72,0.84c0.44-0.36,0.34-1.39,0.48-2.11c1.2-0.64,2.39-1.28,3.59-1.91c0.43-0.26,0.87-0.53,1.3-0.79  c0.25-0.32,0.58-0.45,0.98-0.4c4.32-0.54,8.71-0.94,10.61-5.86l-0.02,0.03c1.73,0.18,3.39,0.25,3.65-2.12  c0.78-0.41,1.56-0.82,2.34-1.22c1.89,1.64,2.13,0.27,2.28-1.25l0,0c1.88-0.16,4.43,0.9,4.57-2.47l-0.02,0.03  c1.75,0.22,3.42,0.29,3.69-2.1l0.06-0.04c1.82-0.23,4.28,0.69,4.51-2.46l-0.02,0.02c0.41-0.26,0.81-0.53,1.22-0.79  c0.26-0.31,0.6-0.44,1-0.41c0.44-0.28,0.88-0.55,1.33-0.83c0.22-0.3,0.52-0.44,0.89-0.42c1.77,0.2,3.54,0.4,3.82-2.1  c0.77-0.42,1.54-0.85,2.31-1.27c2.01,1.84,2.09,0.22,2.25-1.26c0,0-0.03,0.04-0.03,0.04c0.43-0.27,0.85-0.54,1.28-0.81  c0.24-0.31,0.55-0.44,0.94-0.4c2.69,0.09,5.3,0.02,6.07-3.37l0.02-0.01c3.66,0.13,7.33,0.26,8.18-4.6l0.04-0.03  c1.84-0.23,4.37,0.77,4.48-2.53l-0.02,0.03c1.77,0.2,3.46,0.27,3.64-2.18c0.77-0.43,1.54-0.86,2.32-1.29  c2.11,1.98,2.1,0.27,2.2-1.26l-0.01,0.03c1.78,0.23,3.49,0.33,3.66-2.17l0.02-0.01c2.63,0.04,5.41,0.34,5.87-3.39  c0,0,0.08-0.05,0.08-0.05c0.33-0.22,0.67-0.44,1-0.66c0.38-0.2,0.77-0.39,1.15-0.59c0.4-0.27,0.8-0.54,1.2-0.81  c0.26-0.31,0.6-0.45,1-0.43c1.93,0.16,3.72,0.15,3.47-2.6c0,0-0.02-0.51-0.02-0.51c2.43-3.38,5.6,1.01,8.56-1.04  c10.43-7.22,22.26-12.16,32.58-19.6c5.16-3.72,4.97-11.57-0.47-14.79c-9.1-5.4-18.37-10.51-27.28-16.19  c-3.33-2.12-6.27-2.49-9.72-1.15c-0.25-3.18-2.08-5.15-4.77-6.69c-4.47-2.54-8.8-5.5-13.3-7.77c-5.48-2.77-10.12-7.82-16.95-7.64  l0.01,0.01c0.23-2.31-1.78-2.99-3.16-3.71c-12.44-6.44-24.92-12.82-37.51-18.98c-2.12-1.04-4.09-3.78-7.1-1.84  c-2.37-0.34-4.15-1.89-6.14-3c0.13-0.86,0.4-1.82-0.63-2.27c-0.89-0.39-1.18,0.42-1.51,1.03c-0.82-0.39-1.64-0.78-2.47-1.16  c0.1-0.85,0.34-1.81-0.71-2.22c-0.88-0.34-1.17,0.44-1.49,1.05c-0.82-0.4-1.63-0.8-2.45-1.21c0.05-3.78-2.6-2.61-4.65-2.53  l-0.02,0.03c-0.08-3.71-2.67-2.41-4.65-2.34c0,0-0.04,0.03-0.04,0.03c0.17-3.67-3.16-3.49-4.9-3.41c-3.48,0.16,0.98,3.87-1.67,4.91  c-6.27-2.67-7.14-2.13-7.14,4.89c-0.02,52.2-0.04,104.4,0.07,156.6c0.01,3.03-1.92,7.35,2.09,8.82c3.49,1.28,4.74-3.24,7.24-4.82  c2.16-1.36,3.11-5.57,6.96-3.04c-0.02,0.47-0.04,0.93-0.05,1.4c0,0-0.01,0.01-0.01,0.01c-0.39,0.38-0.77,0.77-1.16,1.15l-0.01,0.01  C63.8,297.31,63.42,297.68,63.03,298.05z M468.64,265.96c0.7,10.34-3.38,15.43-13.37,16.37c-6.34,0.59-12.57-0.48-17.91-3.92  c-5.24-3.37-5.02,1.76-6.81,3.74c-2.34,2.59-1.33,4.26,1.51,5.77c8.59,4.57,17.76,5.37,27.19,4.48  c12.88-1.22,20.91-8.9,21.47-21.83c0.65-14.93,0.28-29.91,0.33-44.87c0-1.27,0.31-2.66-1.51-3.32c-4.13-1.51-9.46,0.77-10.97,4.86  c-12.95-8.05-27.85-6.85-36.6,2.95c-7.44,8.34-7.91,22.35-1.05,31.32C439.19,272.33,453.32,273.99,468.64,265.96z M611.29,239.6  c0,8.55,0,17.1,0,25.64c0,9.1-0.01,9,9.36,8.4c2.5-0.16,3.45-0.88,3.36-3.39c-0.14-4.07,0.15-8.17-0.09-12.23  c-0.19-3.17,1.1-3.91,4.03-3.87c5.82,0.08,11.7,0.23,17.45-0.45c9.66-1.15,17.48-5.46,20.76-15.33  c5.11-15.38-3.67-28.98-20.23-31.28c-10.24-1.42-20.57-0.29-30.85-0.73c-3.86-0.17-3.86,1.9-3.84,4.69  C611.33,220.56,611.28,230.08,611.29,239.6z M291.91,253.09c0-3.5,0.02-7-0.01-10.5c-0.01-1.5,0.28-2.91-2.03-3.43  c-7.36-1.66-9.85,0.08-9.85,7.34c0,1.36,0,2.72,0,4.08c0,10.8-1.54,12.41-12.45,12.72c-1.93,0.06-3.9-0.01-5.81-0.3  c-10.89-1.6-18.78-10.45-19.35-21.57c-0.61-11.85,6.02-21.15,17.06-23.92c8.46-2.13,16.11-0.55,23.11,4.71  c4.98,3.74,5.83-2.41,8.43-4.02c3.23-2,0.08-3.51-1.3-4.74c-4.16-3.7-9.11-5.99-14.54-6.96c-14.47-2.57-27.72-0.26-37.67,11.46  c-8.99,10.59-10.2,22.91-5.23,35.61c6.91,17.68,28.5,25.61,48.88,18.34c10.38-3.7,10.75-4.24,10.76-15.33  C291.91,255.43,291.91,254.26,291.91,253.09z M552.29,251.79c5.44,0,10.88-0.16,16.31,0.06c3.16,0.13,4.03-1.09,3.88-4.06  c-0.5-10.22-4.13-18.73-13.79-23.22c-9.86-4.59-19.76-4.02-28.65,2.56c-10.9,8.07-13.27,25.08-5.38,36.11  c8.12,11.36,28.18,14.74,39.89,6.53c1.65-1.16,5.7-2.18,3.02-5.42c-1.99-2.4-3.04-7.37-8.72-3.45c-8.49,5.87-20.32,3.27-24.77-4.34  c-1.76-3.01-2.16-5,2.49-4.82C541.8,251.95,547.05,251.8,552.29,251.79z M738.18,268.85c1.01,5.13,1.33,5.03,8.58,4.82  c3.74-0.11,3.36-2.19,3.35-4.56c-0.04-9.14,0.16-18.28-0.13-27.41c-0.25-7.89-3.14-14.67-11.04-17.65  c-10.55-3.98-20.96-2.79-31.04,2.13c-4.21,2.05-1.51,4.38-0.43,6.58c1.06,2.16,1.68,4.68,5.36,2.43c5.28-3.22,11.21-4.18,17.4-2.62  c3.26,0.82,5.62,2.66,6.83,5.77c1.28,3.29,1.23,5.5-3.52,5.23c-6-0.35-12.07-0.43-18,0.97c-7.12,1.67-11.53,6.59-11.98,13.22  c-0.47,6.93,3.36,12.72,10.46,15.03C722.4,275.53,730.45,274.87,738.18,268.85z M812,222.86c-11.1-1.34-11.1-1.33-15.06,7.89  c-4,9.3-8,18.6-12.48,29.01c-4.34-10.12-8.15-19.01-11.96-27.9c-4.22-9.85-4.22-9.86-15.01-9.42c-0.3,0.01-0.59,0.35-1.28,0.78  c6.53,15.05,12.88,30.25,19.76,45.2c2.1,4.56,1.9,8.08-1.41,11.55c-3.54,3.71-7.92,3.55-11.74,1.15c-5.53-3.49-4.81,2.17-6.5,4.02  c-2.8,3.06-0.05,4.35,2.24,5.5c10.3,5.16,22.12,1.62,27.56-8.52c2.56-4.78,4.54-9.87,6.7-14.86  C799.21,252.51,805.57,237.76,812,222.86z M418.93,247.91c-0.02-15.39-11.43-26.24-27.46-26.11  c-15.67,0.12-27.02,11.03-27.11,26.04c-0.09,15.23,11.55,26.49,27.33,26.47C407.68,274.28,418.95,263.35,418.93,247.91z   M357.28,247.77c-0.11-15.37-11.61-26.2-27.6-25.98c-15.78,0.21-26.81,10.98-26.8,26.18c0.01,15.41,11.38,26.39,27.3,26.35  C346.08,274.27,357.4,263.19,357.28,247.77z M691.73,238.61c0-10.48-0.25-20.97,0.11-31.44c0.16-4.68-2.05-5.13-5.56-4.67  c-2.97,0.39-7.11-1.91-7.03,4.4c0.29,20.76,0.29,41.53,0.01,62.3c-0.09,6.35,4.09,3.97,7.04,4.38c3.54,0.49,5.71-0.06,5.54-4.7  C691.48,258.8,691.73,248.7,691.73,238.61z M508.78,237.77c0-10.29-0.29-20.6,0.12-30.87c0.2-5.15-2.75-4.55-5.84-4.36  c-2.91,0.19-6.59-1.58-6.51,4.29c0.3,20.77,0.29,41.56,0,62.33c-0.07,5.11,2.73,4.58,5.86,4.37c2.92-0.19,6.72,1.59,6.48-4.31  C508.48,258.75,508.78,248.26,508.78,237.77z M403.61,159.44c-1.91-2.28-2.67-3.14-3.38-4.04c-6.59-8.4-13.19-16.79-19.72-25.24  c-1.17-1.51-2.4-2.37-4.38-2.22c-1.55,0.12-1.98,0.95-1.98,2.26c-0.01,12.23,0.02,24.47-0.02,36.7c-0.01,2.2,1.23,2.49,3,2.49  c1.69-0.01,2.52-0.69,2.51-2.4c-0.02-3.3,0-6.6,0-9.9c0-5.62,0-11.25,0-16.87c8.52,8.83,15.63,17.75,22.62,26.76  c1.48,1.91,3.2,3.03,5.45,2.26c2.21-0.76,1.37-2.97,1.38-4.59c0.06-10.68,0.07-21.36-0.01-32.04c-0.01-1.89,1.02-4.55-2.58-4.66  c-4.09-0.13-2.82,2.9-2.85,4.91C403.55,141.11,403.61,149.39,403.61,159.44z M506.15,157.78c-0.42,0.17-0.83,0.35-1.25,0.52  c-7.29-9.31-14.6-18.59-21.83-27.94c-1.3-1.69-2.72-2.88-4.88-2.32c-2.49,0.64-1.56,2.83-1.57,4.39  c-0.08,10.88-0.04,21.76-0.03,32.65c0,2.11-0.48,4.49,3.01,4.28c3.23-0.19,2.32-2.56,2.33-4.29c0.07-8.42,0.03-16.85,0.03-26.5  c1.57,1.71,2.23,2.34,2.79,3.06c6.63,8.38,13.29,16.74,19.81,25.2c1.47,1.91,3.12,3.05,5.42,2.4c2.41-0.68,1.42-2.91,1.43-4.48  c0.08-10.69,0.09-21.38-0.02-32.06c-0.02-1.81,1.25-4.56-2.43-4.74c-3.63-0.18-2.79,2.43-2.8,4.38  C506.12,140.81,506.15,149.29,506.15,157.78z M268.15,159.06c0.01-10.6,0.01-10.67-9.07-10.37c-1.61,0.05-4.39-1.37-4.5,1.89  c-0.11,3.31,2.71,1.78,4.34,2.14c1.55,0.35,3.77-0.82,4.34,1.67c0.44,1.92,0.13,3.72-1.33,5.4c-4.82,5.53-13.22,6.33-18.87,1.62  c-6.89-5.74-7.72-17.19-1.75-24.15c5.41-6.31,12.38-6.21,20.13,0.71c1.74,1.55,2.62,0.85,3.87-0.04c1.51-1.06,1.14-2.29,0.13-3.43  c-1.02-1.16-2.04-2.37-3.24-3.33c-6.48-5.23-17.06-4.57-23.58,1.39c-7.87,7.2-9.05,19.69-2.71,28.7  c5.48,7.79,14.59,10.38,22.5,6.42c2.04-1.02,4.51-4.24,5.51,1.02c0.07,0.36,1.72,0.65,2.6,0.56c1.47-0.15,1.63-1.4,1.62-2.63  C268.14,164.11,268.15,161.59,268.15,159.06z M450.29,127.71c-10.71-0.09-19.77,9.59-19.7,21.05c0.07,11.31,8.79,20.74,19.31,20.86  c10.57,0.12,19.35-9.07,19.58-20.49C469.72,137.44,461.08,127.8,450.29,127.71z M275.59,148.64c0,5.63,0.09,11.26-0.04,16.89  c-0.06,2.59,0.52,3.95,3.5,3.89c7.18-0.15,14.37-0.07,21.55-0.04c1.69,0.01,3.05-0.08,3.13-2.33c0.09-2.57-1.4-2.73-3.36-2.69  c-3.88,0.08-7.81-0.35-11.64,0.11c-5.9,0.7-7.95-1.1-7.74-7.4c0.18-5.3,1.44-7.33,6.77-6.58c2.48,0.35,5.06,0.25,7.56-0.01  c1.8-0.18,4.89,1.48,4.96-2.07c0.09-4.1-3.36-2.15-5.24-2.31c-3.47-0.31-6.99-0.19-10.48-0.05c-2.49,0.1-3.57-0.78-3.35-3.34  c0.15-1.73,0.19-3.51-0.02-5.24c-0.41-3.47,0.75-4.89,4.45-4.66c4.84,0.3,9.7,0.07,14.56,0.07c1.59,0,3.11,0.11,3.19-2.25  c0.09-2.61-1.47-2.71-3.38-2.7c-6.99,0.03-13.98,0.13-20.97-0.04c-2.98-0.07-3.57,1.25-3.51,3.85  C275.68,137.37,275.59,143.01,275.59,148.64z M326.53,151.08c0-1.94-0.04-3.88,0.01-5.82c0.09-3.85-1.07-8.53,0.7-11.33  c1.82-2.87,6.8-0.57,10.35-1.06c0.19-0.03,0.39-0.01,0.58-0.01c1.62,0.03,2.48-0.61,2.46-2.39c-0.02-1.66-0.6-2.54-2.33-2.53  c-9.69,0.01-19.39,0.01-29.08-0.01c-1.64,0-2.43,0.62-2.51,2.38c-0.09,2.19,1.08,2.61,2.88,2.56c1.94-0.05,3.91,0.21,5.81-0.05  c4.18-0.56,5.76,0.71,5.56,5.28c-0.4,9.09-0.12,18.22-0.13,27.33c0,1.97-0.27,3.93,2.75,3.97c2.9,0.04,2.97-1.68,2.95-3.79  C326.5,160.78,326.54,155.93,326.53,151.08z M359.2,148.31c0,5.82-0.02,11.63,0.01,17.45c0.01,1.65-0.47,3.6,2.38,3.6  c2.38,0,2.93-1.1,2.92-3.22c-0.05-11.63-0.04-23.27-0.01-34.9c0.01-1.98-0.31-3.3-2.82-3.31c-2.8-0.01-2.49,1.78-2.5,3.51  C359.19,137.07,359.2,142.69,359.2,148.31z"></path>	<path class="st2" d="M468.64,265.96c-15.33,8.04-29.45,6.37-37.72-4.45c-6.86-8.97-6.39-22.98,1.05-31.32  c8.75-9.81,23.65-11.01,36.6-2.95c1.51-4.09,6.84-6.37,10.97-4.86c1.82,0.66,1.51,2.05,1.51,3.32  c-0.04,14.96,0.32,29.93-0.33,44.87c-0.56,12.93-8.59,20.6-21.47,21.83c-9.42,0.9-18.6,0.09-27.19-4.48  c-2.84-1.51-3.84-3.19-1.51-5.77c1.79-1.98,1.58-7.11,6.81-3.74c5.34,3.44,11.57,4.51,17.91,3.92  C465.27,281.39,469.34,276.29,468.64,265.96z M453.68,260.9c9.18,0.04,15.46-5.83,15.45-14.44c-0.01-8.33-6.11-14.18-14.99-14.37  c-9.12-0.2-15.64,5.68-15.75,14.2C438.28,254.9,444.52,260.86,453.68,260.9z"></path>	<path class="st3" d="M81.37,139.99c1.99,1.12,3.77,2.66,6.14,3c15.5,9,31.45,17.12,47.76,24.53c0,0-0.01-0.01-0.01-0.01  c9.25,6.7,19.47,11.8,29.32,17.5c3.48,2.01,3.8,3.59,0.79,6.41c-7.06,6.61-13.9,13.46-20.82,20.21l-0.01-0.02  c-1.72-1.24-3.62-2.29-5.13-3.75c-25.1-24.22-50.16-48.48-75.18-72.78c-1.45-1.41-3.58-2.53-3.42-5.09l-0.06,0.06  c0.67,0.12,1.33,0.24,2,0.36c0,0,0.04-0.03,0.04-0.03c1.17,1.53,2.84,2.09,4.65,2.34c0,0,0.02-0.03,0.02-0.03  c1.18,1.53,2.91,2.04,4.65,2.53c0.82,0.4,1.63,0.8,2.45,1.21c0.73,0.39,1.47,0.78,2.2,1.17c0.82,0.39,1.64,0.78,2.47,1.16  C79.94,139.16,80.65,139.57,81.37,139.99z"></path>	<path class="st4" d="M611.29,239.6c0-9.52,0.05-19.04-0.04-28.56c-0.03-2.78-0.03-4.85,3.84-4.69c10.28,0.44,20.61-0.69,30.85,0.73  c16.56,2.3,25.35,15.9,20.23,31.28c-3.28,9.87-11.1,14.18-20.76,15.33c-5.76,0.68-11.64,0.53-17.45,0.45  c-2.93-0.04-4.22,0.7-4.03,3.87c0.24,4.07-0.04,8.16,0.09,12.23c0.09,2.52-0.87,3.23-3.36,3.39c-9.37,0.6-9.36,0.71-9.36-8.4  C611.29,256.7,611.29,248.15,611.29,239.6z M623.98,230.15c0,3.1,0.15,6.22-0.04,9.31c-0.17,2.81,0.39,4.31,3.71,4.09  c5.22-0.35,10.53,0.21,15.68-0.52c10.13-1.42,14.88-12.14,9.18-20.15c-3.72-5.23-9.46-5.54-15.15-5.66  C623.99,216.95,623.99,216.97,623.98,230.15z"></path>	<path class="st2" d="M291.91,253.09c0,1.17,0,2.33,0,3.5c-0.01,11.09-0.38,11.63-10.76,15.33c-20.38,7.27-41.97-0.66-48.88-18.34  c-4.97-12.7-3.75-25.02,5.23-35.61c9.94-11.72,23.2-14.03,37.67-11.46c5.44,0.97,10.38,3.26,14.54,6.96  c1.38,1.23,4.53,2.74,1.3,4.74c-2.6,1.61-3.45,7.76-8.43,4.02c-7-5.26-14.65-6.84-23.11-4.71c-11.04,2.78-17.67,12.08-17.06,23.92  c0.57,11.12,8.47,19.97,19.35,21.57c1.91,0.28,3.88,0.35,5.81,0.3c10.91-0.31,12.45-1.92,12.45-12.72c0-1.36,0-2.72,0-4.08  c0-7.26,2.49-9,9.85-7.34c2.31,0.52,2.02,1.93,2.03,3.43C291.92,246.1,291.91,249.59,291.91,253.09z"></path>	<path class="st5" d="M60.73,301.61c0.01-0.4,0.02-0.81,0.03-1.21c0.36-0.37,0.72-0.74,1.07-1.11c0,0,0.06-0.06,0.06-0.06  c0.36-0.38,0.72-0.75,1.09-1.13c0,0,0.06-0.06,0.06-0.06c0.38-0.37,0.77-0.74,1.15-1.11c0,0,0.01-0.01,0.01-0.01  c0.39-0.38,0.77-0.77,1.16-1.15c0,0,0.01-0.01,0.01-0.01c0.39-0.39,0.79-0.78,1.18-1.17l-0.03,0.03c0.43-0.43,0.85-0.86,1.28-1.29  c0.75-0.71,1.5-1.43,2.25-2.14c1.47-1.23,3.02-2.38,4.4-3.71c21.73-20.97,43.5-41.9,65.09-63.01c3.11-3.04,4.98-3.6,8.25-0.17  c5.99,6.29,12.52,12.08,18.82,18.08c0,0,0.02,0.51,0.02,0.51c-1.16,0.87-2.31,1.73-3.47,2.6c-0.41-0.03-0.74,0.12-1,0.43  c-0.4,0.27-0.8,0.54-1.2,0.81c-0.38,0.2-0.77,0.39-1.15,0.59c-0.33,0.22-0.67,0.44-1,0.66c0,0-0.08,0.05-0.08,0.05  c-2.33,0.49-4.26,1.66-5.87,3.39c0,0-0.02,0.01-0.02,0.01c-1.56,0.14-2.82,0.81-3.66,2.17c0,0,0.01-0.03,0.01-0.03  c-0.95,0.04-1.75,0.34-2.2,1.26c-0.77,0.43-1.54,0.86-2.32,1.29c-1.56,0.14-2.78,0.86-3.64,2.18c0,0,0.02-0.03,0.02-0.03  c-1.77,0.35-3.36,1.03-4.48,2.53c0,0-0.04,0.03-0.04,0.03c-3.09,0.89-5.82,2.41-8.18,4.6c0,0-0.02,0.01-0.02,0.01  c-2.4,0.44-4.42,1.57-6.07,3.37c-0.39-0.04-0.7,0.09-0.94,0.4c-0.43,0.27-0.85,0.54-1.28,0.81c0,0,0.03-0.04,0.03-0.04  c-0.98,0.01-1.78,0.32-2.25,1.26c-0.77,0.42-1.54,0.85-2.31,1.27c-1.62,0.08-2.88,0.8-3.82,2.1c-0.37-0.02-0.67,0.12-0.89,0.42  c-0.44,0.28-0.88,0.55-1.33,0.83c-0.4-0.03-0.74,0.1-1,0.41c-0.41,0.26-0.81,0.53-1.22,0.79c0,0,0.02-0.02,0.02-0.02  c-1.8,0.28-3.38,0.96-4.51,2.45c0,0-0.06,0.04-0.06,0.04c-1.56,0.13-2.82,0.77-3.69,2.1c0,0,0.02-0.03,0.02-0.03  c-1.8,0.31-3.39,1.02-4.57,2.47c0,0,0,0,0,0c-1.01-0.04-1.79,0.33-2.28,1.25c-0.78,0.41-1.56,0.82-2.34,1.22  c-1.55,0.13-2.78,0.81-3.65,2.12c0,0,0.02-0.03,0.02-0.03c-3.89,1.31-7.46,3.21-10.61,5.86c-0.4-0.05-0.73,0.08-0.98,0.4  c-0.43,0.26-0.87,0.53-1.3,0.79c-1.2,0.64-2.39,1.28-3.59,1.92c-0.73,0.42-1.47,0.85-2.2,1.27c-0.8,0.41-1.59,0.83-2.39,1.24  c-0.92,0.09-1.78,0.32-2.24,1.24c-0.76,0.07-1.53,0.13-2.29,0.2C60.65,301.54,60.73,301.61,60.73,301.61z"></path>	<path class="st2" d="M552.29,251.79c-5.24,0-10.49,0.16-15.73-0.04c-4.66-0.18-4.25,1.81-2.49,4.82  c4.44,7.61,16.28,10.2,24.77,4.34c5.67-3.92,6.73,1.05,8.72,3.45c2.69,3.24-1.37,4.26-3.02,5.42c-11.71,8.21-31.77,4.83-39.89-6.53  c-7.88-11.03-5.52-28.04,5.38-36.11c8.89-6.58,18.8-7.15,28.65-2.56c9.66,4.5,13.29,13,13.79,23.22c0.15,2.97-0.72,4.19-3.88,4.06  C563.18,251.63,557.73,251.79,552.29,251.79z M546.36,243.91c3.67,0,7.34-0.11,11.01,0.03c3.28,0.13,3.5-1.34,2.51-3.9  c-1.95-5.07-7.27-8.51-13.33-8.52c-6.27,0-11.59,3.67-13.59,9c-1,2.67-0.3,3.48,2.39,3.4C539.02,243.82,542.69,243.9,546.36,243.91  z"></path>	<path class="st4" d="M738.18,268.85c-7.73,6.01-15.78,6.68-24.17,3.95c-7.1-2.31-10.93-8.11-10.46-15.03  c0.45-6.63,4.86-11.55,11.98-13.22c5.93-1.4,12-1.32,18-0.97c4.75,0.28,4.79-1.94,3.52-5.23c-1.21-3.11-3.57-4.95-6.83-5.77  c-6.18-1.56-12.12-0.59-17.4,2.62c-3.68,2.25-4.3-0.27-5.36-2.43c-1.08-2.2-3.77-4.53,0.43-6.58c10.09-4.92,20.49-6.12,31.04-2.13  c7.9,2.98,10.8,9.77,11.04,17.65c0.29,9.13,0.09,18.27,0.13,27.41c0.01,2.37,0.39,4.45-3.35,4.56  C739.51,273.88,739.19,273.98,738.18,268.85z M725.32,265.38c7.09-0.11,12.67-4.56,12.65-10.13c-0.01-1.46,0.42-3.54-1.87-3.52  c-5.57,0.05-11.24-0.92-16.68,1.02c-2.41,0.86-3.74,2.74-3.93,5.26c-0.19,2.55,1.06,4.52,3.16,5.8  C720.66,265.04,722.94,265.51,725.32,265.38z"></path>	<path class="st4" d="M812,222.86c-6.43,14.89-12.79,29.65-19.18,44.39c-2.16,4.99-4.14,10.08-6.7,14.86  c-5.44,10.14-17.26,13.68-27.56,8.52c-2.29-1.15-5.04-2.44-2.24-5.5c1.7-1.85,0.97-7.51,6.5-4.02c3.82,2.41,8.2,2.57,11.74-1.15  c3.3-3.46,3.5-6.99,1.41-11.55c-6.87-14.95-13.22-30.14-19.76-45.2c0.69-0.43,0.98-0.77,1.28-0.78  c10.79-0.44,10.79-0.44,15.01,9.42c3.81,8.89,7.62,17.78,11.96,27.9c4.48-10.41,8.48-19.71,12.48-29.01  C800.9,221.53,800.9,221.53,812,222.86z"></path>	<path class="st4" d="M418.93,247.91c0.02,15.45-11.25,26.37-27.24,26.4c-15.78,0.03-27.42-11.24-27.33-26.47  c0.09-15.01,11.44-25.91,27.11-26.04C407.5,221.67,418.91,232.52,418.93,247.91z M376.73,247.96c0,9.32,6.23,15.93,14.97,15.9  c8.73-0.03,15.07-6.7,15.11-15.88c0.04-9.13-6.38-15.89-15.07-15.88C382.9,232.11,376.73,238.63,376.73,247.96z"></path>	<path class="st2" d="M357.28,247.77c0.11,15.42-11.2,26.5-27.1,26.54c-15.92,0.04-27.29-10.94-27.3-26.35  c-0.01-15.19,11.02-25.97,26.8-26.18C345.67,221.58,357.17,232.4,357.28,247.77z M315.07,247.79c-0.06,9.28,5.99,15.92,14.67,16.11  c8.78,0.19,15.51-6.79,15.45-16.03c-0.05-9.05-6.46-15.75-15.09-15.77C321.35,232.08,315.13,238.57,315.07,247.79z"></path>	<path class="st6" d="M70.04,291.18c-0.75,0.71-1.5,1.43-2.26,2.15c-0.43,0.43-0.85,0.86-1.28,1.29c0,0,0.03-0.03,0.03-0.03  c-0.37-0.08-0.75-0.16-1.12-0.23c-3.86-2.53-4.81,1.69-6.96,3.04c-2.5,1.57-3.76,6.09-7.24,4.82c-4.02-1.47-2.09-5.79-2.09-8.82  c-0.11-52.2-0.09-104.4-0.07-156.6c0-7.02,0.86-7.56,7.14-4.89c2.64-1.04-1.82-4.75,1.67-4.91c1.73-0.08,5.07-0.26,4.9,3.41  c-0.67-0.12-1.33-0.24-2-0.36c-0.3-0.06-0.6-0.13-0.89-0.19c0.32,0.04,0.64,0.09,0.96,0.13c-0.17,2.57,1.96,3.68,3.42,5.09  c25.02,24.3,50.08,48.56,75.18,72.78c1.51,1.46,3.41,2.51,5.13,3.75c-3.08,4.13-4.98,9.12-9.22,12.43  c-6.84,5.33-12.26,12.14-18.78,17.86c-11.48,10.06-21.28,21.91-33.02,31.77c-4.71,3.96-8.59,8.89-12.9,13.32  C69.32,288.31,67.89,289.47,70.04,291.18z M51.71,300.51c7.08-6.66,13.46-12.54,19.7-18.56c20.96-20.24,41.74-40.66,62.91-60.67  c4.24-4.01,4.08-6.08,0.06-9.92c-23.89-22.8-47.55-45.84-71.32-68.77c-3.43-3.31-7.08-6.4-11.35-10.24  C51.71,188.66,51.71,243.93,51.71,300.51z"></path>	<path class="st7" d="M70.04,291.18c-2.15-1.72-0.72-2.87,0.56-4.19c4.31-4.44,8.19-9.37,12.9-13.32  c11.74-9.86,21.54-21.71,33.02-31.77c6.52-5.72,11.95-12.53,18.78-17.86c4.24-3.31,6.14-8.3,9.22-12.43c0,0,0.01,0.02,0.01,0.02  c1.61,0.3,2.97-0.05,4.29-1.13c7.75-6.35,14.95-13.26,21.46-20.89c3.45-1.34,6.38-0.97,9.72,1.15  c8.91,5.68,18.19,10.79,27.28,16.19c5.44,3.23,5.63,11.08,0.47,14.79c-10.33,7.44-22.15,12.38-32.58,19.6  c-2.96,2.05-6.13-2.34-8.56,1.04c-6.3-6-12.83-11.79-18.82-18.08c-3.27-3.43-5.14-2.87-8.25,0.17  c-21.59,21.11-43.36,42.04-65.09,63.01C73.07,288.8,71.52,289.95,70.04,291.18z M175.96,191.92c-2.25-0.11-3.31,0.74-4.29,1.69  c-6.83,6.58-13.65,13.18-20.49,19.76c-2.12,2.04-2.01,3.79,0.15,5.85c6.03,5.75,11.94,11.62,17.85,17.49  c1.86,1.85,3.72,2.51,6.2,1.06c9.86-5.76,19.86-11.29,29.63-17.2c6.06-3.66,5.97-8.48,0.02-12.02c-8.31-4.95-16.7-9.77-25.07-14.61  C178.47,193.07,176.88,192.38,175.96,191.92z"></path>	<path class="st8" d="M691.73,238.61c0,10.09-0.25,20.19,0.11,30.27c0.17,4.64-2,5.19-5.54,4.7c-2.95-0.41-7.13,1.97-7.04-4.38  c0.28-20.76,0.28-41.53-0.01-62.3c-0.09-6.32,4.06-4.01,7.03-4.4c3.51-0.46,5.73-0.01,5.56,4.67  C691.48,217.64,691.73,228.12,691.73,238.61z"></path>	<path class="st9" d="M508.78,237.77c0,10.49-0.3,20.99,0.12,31.46c0.23,5.89-3.57,4.11-6.48,4.31c-3.12,0.21-5.93,0.74-5.86-4.37  c0.29-20.78,0.3-41.56,0-62.33c-0.09-5.87,3.6-4.1,6.51-4.29c3.09-0.2,6.04-0.79,5.84,4.36  C508.5,217.17,508.78,227.48,508.78,237.77z"></path>	<path class="st0" d="M403.61,159.44c0-10.05-0.06-18.33,0.05-26.61c0.03-2-1.24-5.03,2.85-4.91c3.6,0.11,2.57,2.78,2.58,4.66  c0.08,10.68,0.07,21.36,0.01,32.04c-0.01,1.62,0.84,3.83-1.38,4.59c-2.25,0.77-3.97-0.35-5.45-2.26  c-6.99-9.01-14.1-17.93-22.62-26.76c0,5.62,0,11.25,0,16.87c0,3.3-0.02,6.6,0,9.9c0.01,1.72-0.82,2.39-2.51,2.4  c-1.77,0.01-3.01-0.29-3-2.49c0.04-12.23,0.01-24.47,0.02-36.7c0-1.31,0.44-2.14,1.98-2.26c1.99-0.15,3.22,0.71,4.38,2.22  c6.53,8.45,13.13,16.84,19.72,25.24C400.94,156.3,401.7,157.16,403.61,159.44z"></path>	<path class="st8" d="M506.15,157.78c0-8.48-0.03-16.97,0.02-25.45c0.01-1.95-0.83-4.55,2.8-4.38c3.68,0.18,2.41,2.93,2.43,4.74  c0.11,10.69,0.09,21.38,0.02,32.06c-0.01,1.57,0.98,3.8-1.43,4.48c-2.3,0.65-3.94-0.49-5.42-2.4c-6.52-8.46-13.19-16.82-19.81-25.2  c-0.56-0.71-1.22-1.35-2.79-3.06c0,9.65,0.04,18.08-0.03,26.5c-0.01,1.73,0.89,4.1-2.33,4.29c-3.48,0.2-3-2.17-3.01-4.28  c-0.01-10.88-0.05-21.76,0.03-32.65c0.01-1.56-0.93-3.75,1.57-4.39c2.16-0.55,3.58,0.64,4.88,2.32  c7.23,9.35,14.55,18.63,21.83,27.94C505.32,158.12,505.73,157.95,506.15,157.78z"></path>	<path class="st0" d="M268.15,159.06c0,2.53-0.01,5.05,0,7.58c0.01,1.23-0.15,2.48-1.62,2.63c-0.88,0.09-2.53-0.2-2.6-0.56  c-1-5.26-3.47-2.04-5.51-1.02c-7.91,3.96-17.01,1.37-22.5-6.42c-6.34-9.01-5.16-21.5,2.71-28.7c6.52-5.96,17.1-6.62,23.58-1.39  c1.2,0.96,2.21,2.17,3.24,3.33c1.01,1.14,1.38,2.37-0.13,3.43c-1.26,0.88-2.13,1.59-3.87,0.04c-7.74-6.92-14.71-7.02-20.13-0.71  c-5.97,6.96-5.14,18.42,1.75,24.15c5.65,4.7,14.05,3.91,18.87-1.62c1.46-1.67,1.77-3.48,1.33-5.4c-0.57-2.48-2.8-1.32-4.34-1.67  c-1.63-0.37-4.45,1.16-4.34-2.14c0.11-3.25,2.89-1.83,4.5-1.89C268.16,148.39,268.16,148.46,268.15,159.06z"></path>	<path class="st0" d="M450.29,127.71c10.79,0.09,19.43,9.73,19.19,21.41c-0.23,11.42-9.01,20.62-19.58,20.49  c-10.52-0.12-19.25-9.54-19.31-20.86C430.53,137.3,439.58,127.62,450.29,127.71z M464.11,148.42c-0.11-8.57-6.47-15.8-13.92-15.83  c-7.77-0.03-14.08,7.3-13.99,16.26c0.09,8.75,6.21,15.72,13.83,15.77C457.78,164.66,464.23,157.24,464.11,148.42z"></path>	<path class="st0" d="M275.59,148.64c0-5.63,0.09-11.26-0.04-16.89c-0.06-2.6,0.53-3.92,3.51-3.85c6.99,0.17,13.98,0.07,20.97,0.04  c1.9-0.01,3.47,0.09,3.38,2.7c-0.09,2.35-1.61,2.25-3.19,2.25c-4.85,0-9.72,0.23-14.56-0.07c-3.7-0.23-4.86,1.19-4.45,4.66  c0.21,1.72,0.16,3.5,0.02,5.24c-0.22,2.55,0.86,3.44,3.35,3.34c3.49-0.14,7.01-0.26,10.48,0.05c1.88,0.17,5.32-1.79,5.24,2.31  c-0.07,3.56-3.16,1.89-4.96,2.07c-2.5,0.25-5.08,0.35-7.56,0.01c-5.33-0.75-6.59,1.28-6.77,6.58c-0.21,6.3,1.84,8.09,7.74,7.4  c3.83-0.45,7.76-0.03,11.64-0.11c1.96-0.04,3.45,0.12,3.36,2.69c-0.08,2.25-1.44,2.34-3.13,2.33c-7.18-0.03-14.37-0.11-21.55,0.04  c-2.98,0.06-3.56-1.3-3.5-3.89C275.68,159.9,275.59,154.27,275.59,148.64z"></path>	<path class="st0" d="M326.54,151.08c0,4.85-0.04,9.69,0.02,14.54c0.02,2.11-0.06,3.83-2.95,3.79c-3.03-0.04-2.75-2-2.75-3.97  c0.01-9.11-0.27-18.23,0.13-27.33c0.2-4.57-1.38-5.84-5.56-5.28c-1.9,0.26-3.87,0-5.81,0.05c-1.8,0.04-2.97-0.37-2.88-2.56  c0.07-1.76,0.87-2.38,2.51-2.38c9.69,0.02,19.39,0.02,29.08,0.01c1.73,0,2.31,0.88,2.33,2.53c0.02,1.78-0.84,2.42-2.46,2.39  c-0.19,0-0.39-0.02-0.58,0.01c-3.56,0.49-8.53-1.81-10.35,1.06c-1.78,2.8-0.61,7.48-0.7,11.33  C326.5,147.2,326.53,149.14,326.54,151.08z"></path>	<path class="st2" d="M359.2,148.31c0-5.62-0.01-11.25,0-16.87c0-1.72-0.3-3.52,2.5-3.51c2.51,0.01,2.82,1.33,2.82,3.31  c-0.03,11.63-0.05,23.27,0.01,34.9c0.01,2.12-0.54,3.22-2.92,3.22c-2.86,0-2.37-1.94-2.38-3.6  C359.18,159.95,359.2,154.13,359.2,148.31z"></path>	<path class="st6" d="M170.29,189.61c-6.51,7.63-13.7,14.54-21.46,20.89c-1.31,1.08-2.68,1.43-4.29,1.13  c6.93-6.75,13.76-13.6,20.82-20.21c3.01-2.82,2.69-4.39-0.79-6.41c-9.85-5.7-20.07-10.8-29.32-17.5  c6.84-0.18,11.47,4.87,16.95,7.64c4.5,2.27,8.83,5.23,13.3,7.77C168.21,184.45,170.03,186.42,170.29,189.61z"></path>	<path class="st6" d="M135.27,167.52c-16.31-7.41-32.26-15.53-47.76-24.53c3-1.94,4.98,0.81,7.1,1.84  c12.59,6.16,25.07,12.54,37.51,18.98C133.49,164.53,135.5,165.21,135.27,167.52z"></path>	<path class="st7" d="M75.64,294.47c3.15-2.66,6.71-4.56,10.61-5.86C84.35,293.54,79.96,293.94,75.64,294.47z"></path>	<path class="st7" d="M128.35,265.41c2.36-2.19,5.1-3.71,8.18-4.6C135.68,265.67,132.02,265.54,128.35,265.41z"></path>	<path class="st7" d="M122.27,268.79c1.65-1.8,3.67-2.93,6.07-3.37C127.57,268.8,124.96,268.87,122.27,268.79z"></path>	<path class="st7" d="M152.85,251.4c1.61-1.73,3.54-2.9,5.87-3.39C158.27,251.74,155.49,251.45,152.85,251.4z"></path>	<path class="st6" d="M67.44,132.71c-1.82-0.25-3.48-0.81-4.65-2.34C64.76,130.3,67.36,129,67.44,132.71z"></path>	<path class="st7" d="M102.78,279.47c1.14-1.5,2.72-2.18,4.51-2.45C107.05,280.16,104.6,279.24,102.78,279.47z"></path>	<path class="st7" d="M94.48,284.05c1.18-1.46,2.77-2.16,4.57-2.47C98.91,284.95,96.37,283.89,94.48,284.05z"></path>	<path class="st7" d="M136.58,260.78c1.12-1.5,2.7-2.19,4.48-2.53C140.95,261.55,138.42,260.55,136.58,260.78z"></path>	<path class="st6" d="M72.11,135.21c-1.74-0.49-3.47-1-4.65-2.53C69.51,132.6,72.16,131.43,72.11,135.21z"></path>	<path class="st7" d="M99.03,281.61c0.87-1.33,2.13-1.98,3.69-2.1C102.45,281.9,100.79,281.83,99.03,281.61z"></path>	<path class="st7" d="M111.71,274.58c0.94-1.3,2.2-2.03,3.82-2.1C115.25,274.98,113.48,274.79,111.71,274.58z"></path>	<path class="st7" d="M60.5,302.48c-0.34,1-1.01,1.58-2.06,1.16c-0.34-0.14-0.47-0.81-0.7-1.24c0.66-0.22,1.31-0.44,1.97-0.67  C59.98,301.98,60.24,302.23,60.5,302.48z"></path>	<path class="st7" d="M141.04,258.28c0.86-1.32,2.07-2.04,3.64-2.18C144.5,258.55,142.81,258.48,141.04,258.28z"></path>	<path class="st7" d="M149.18,253.58c0.84-1.36,2.09-2.03,3.66-2.17C152.66,253.91,150.96,253.81,149.18,253.58z"></path>	<path class="st7" d="M163.16,245.48c1.16-0.87,2.32-1.73,3.47-2.6C166.88,245.63,165.09,245.64,163.16,245.48z"></path>	<path class="st7" d="M86.22,288.64c0.86-1.31,2.1-1.98,3.65-2.12C89.62,288.89,87.95,288.82,86.22,288.64z"></path>	<path class="st7" d="M146.99,254.81c0.45-0.92,1.25-1.21,2.2-1.26C149.09,255.08,149.1,256.79,146.99,254.81z"></path>	<path class="st7" d="M62.94,301.34c0.46-0.93,1.32-1.15,2.24-1.24C65.06,301.63,65.16,303.57,62.94,301.34z"></path>	<path class="st7" d="M67.57,298.85c0.73-0.42,1.47-0.85,2.2-1.27c-0.14,0.73-0.04,1.75-0.48,2.11  C68.57,300.29,67.93,299.61,67.57,298.85z"></path>	<path class="st7" d="M117.84,271.21c0.46-0.93,1.27-1.24,2.25-1.26C119.93,271.43,119.86,273.05,117.84,271.21z"></path>	<path class="st7" d="M92.21,285.3c0.48-0.92,1.27-1.29,2.28-1.25C94.33,285.57,94.1,286.94,92.21,285.3z"></path>	<path class="st6" d="M81.37,139.99c-0.71-0.42-1.43-0.83-2.14-1.25c0.32-0.61,0.62-1.42,1.51-1.03  C81.77,138.17,81.49,139.13,81.37,139.99z"></path>	<path class="st6" d="M76.76,137.58c-0.73-0.39-1.47-0.78-2.2-1.17c0.32-0.61,0.6-1.39,1.49-1.05  C77.1,135.77,76.86,136.73,76.76,137.58z"></path>	<path class="st7" d="M65.35,295.77c-0.39,0.38-0.77,0.77-1.16,1.15C64.58,296.54,64.97,296.15,65.35,295.77z"></path>	<path class="st7" d="M61.83,299.29c-0.36,0.37-0.72,0.74-1.07,1.11C61.11,300.03,61.47,299.66,61.83,299.29z"></path>	<path class="st7" d="M158.8,247.96c0.33-0.22,0.67-0.44,1-0.66C159.47,247.52,159.13,247.74,158.8,247.96z"></path>	<path class="st7" d="M109.5,275.83c0.44-0.28,0.88-0.55,1.33-0.83C110.38,275.28,109.94,275.55,109.5,275.83z"></path>	<path class="st7" d="M62.98,298.1c-0.36,0.38-0.73,0.75-1.09,1.13C62.25,298.86,62.61,298.48,62.98,298.1z"></path>	<path class="st7" d="M160.95,246.71c0.4-0.27,0.8-0.54,1.2-0.81C161.76,246.17,161.35,246.44,160.95,246.71z"></path>	<path class="st7" d="M120.05,269.99c0.43-0.27,0.85-0.54,1.28-0.81C120.91,269.46,120.48,269.73,120.05,269.99z"></path>	<path class="st7" d="M64.19,296.93c-0.38,0.37-0.77,0.74-1.15,1.11C63.42,297.68,63.8,297.31,64.19,296.93z"></path>	<path class="st7" d="M73.36,295.67c0.43-0.26,0.87-0.53,1.3-0.79C74.23,295.14,73.8,295.4,73.36,295.67z"></path>	<path class="st7" d="M65.42,294.36c0.38,0.07,0.75,0.15,1.12,0.23c-0.39,0.39-0.79,0.78-1.18,1.17  C65.39,295.29,65.4,294.83,65.42,294.36z"></path>	<path class="st5" d="M60.5,302.48c-0.26-0.25-0.52-0.5-0.79-0.74c0.35,0.04,0.69,0,1.01-0.12c0,0-0.07-0.07-0.07-0.07  C60.55,301.84,60.5,302.16,60.5,302.48z"></path>	<path class="st7" d="M107.28,277.03c0.41-0.26,0.81-0.53,1.22-0.79C108.09,276.5,107.68,276.77,107.28,277.03z"></path>	<path class="st10" d="M453.68,260.9c-9.16-0.04-15.4-6-15.29-14.61c0.11-8.52,6.63-14.4,15.75-14.2  c8.88,0.2,14.98,6.04,14.99,14.37C469.14,255.07,462.86,260.94,453.68,260.9z"></path>	<path class="st1" d="M623.98,230.15c0.01-13.17,0.01-13.2,13.37-12.92c5.69,0.12,11.43,0.43,15.15,5.66  c5.7,8,0.95,18.72-9.18,20.15c-5.15,0.72-10.46,0.17-15.68,0.52c-3.32,0.22-3.88-1.29-3.71-4.09  C624.12,236.37,623.98,233.25,623.98,230.15z"></path>	<path class="st7" d="M66.51,294.62c0.42-0.43,0.85-0.86,1.28-1.29C67.36,293.76,66.94,294.19,66.51,294.62z"></path>	<path class="st7" d="M546.36,243.91c-3.67,0-7.34-0.08-11.01,0.02c-2.69,0.08-3.39-0.73-2.39-3.4c2-5.33,7.32-9,13.59-9  c6.06,0,11.37,3.45,13.33,8.52c0.99,2.56,0.77,4.03-2.51,3.9C553.71,243.8,550.03,243.91,546.36,243.91z"></path>	<path class="st10" d="M725.32,265.38c-2.38,0.13-4.67-0.34-6.68-1.57c-2.1-1.28-3.35-3.25-3.16-5.8c0.19-2.52,1.53-4.4,3.93-5.26  c5.44-1.94,11.11-0.97,16.68-1.02c2.29-0.02,1.87,2.06,1.87,3.52C737.99,260.83,732.41,265.27,725.32,265.38z"></path>	<path class="st10" d="M376.73,247.96c0-9.34,6.16-15.85,15-15.86c8.7-0.01,15.11,6.75,15.07,15.88  c-0.04,9.18-6.38,15.84-15.11,15.88C382.96,263.89,376.73,257.28,376.73,247.96z"></path>	<path class="st10" d="M315.07,247.79c0.06-9.23,6.28-15.72,15.04-15.7c8.63,0.02,15.04,6.72,15.09,15.77  c0.05,9.24-6.67,16.22-15.45,16.03C321.06,263.72,315.01,257.07,315.07,247.79z"></path>	<path class="st11" d="M51.71,300.51c0-56.58,0-111.85,0-168.16c4.27,3.84,7.92,6.93,11.35,10.24  c23.77,22.92,47.42,45.97,71.32,68.77c4.02,3.84,4.18,5.91-0.06,9.92c-21.17,20.01-41.95,40.44-62.91,60.67  C65.17,287.97,58.79,293.85,51.71,300.51z"></path>	<path class="st3" d="M60.81,129.98c-0.32-0.04-0.64-0.09-0.96-0.13c0.3,0.06,0.6,0.13,0.89,0.19  C60.75,130.04,60.81,129.98,60.81,129.98z"></path>	<path class="st12" d="M175.96,191.92c0.92,0.46,2.51,1.15,4,2.01c8.37,4.84,16.76,9.67,25.07,14.61c5.95,3.54,6.04,8.36-0.02,12.02  c-9.77,5.91-19.77,11.43-29.63,17.2c-2.48,1.45-4.34,0.79-6.2-1.06c-5.91-5.87-11.82-11.74-17.85-17.49  c-2.16-2.06-2.28-3.81-0.15-5.85c6.84-6.57,13.66-13.17,20.49-19.76C172.66,192.66,173.71,191.81,175.96,191.92z"></path>	<path class="st10" d="M464.11,148.42c0.12,8.82-6.34,16.25-14.08,16.2c-7.62-0.05-13.74-7.02-13.83-15.77  c-0.1-8.96,6.21-16.29,13.99-16.26C457.64,132.62,464,139.85,464.11,148.42z"></path></g></svg>